<?xml version="1.0" encoding="iso-8859-1"?>
<!-- Generator: Adobe Illustrator 18.0.0, SVG Export Plug-In . SVG Version: 6.00 Build 0)  -->
<!DOCTYPE svg PUBLIC "-//W3C//DTD SVG 1.1//EN" "http://www.w3.org/Graphics/SVG/1.1/DTD/svg11.dtd">
<svg version="1.1" id="Capa_1" xmlns="http://www.w3.org/2000/svg" xmlns:xlink="http://www.w3.org/1999/xlink" x="0px" y="0px"
	 viewBox="0 0 241.07 241.07" style="enable-background:new 0 0 241.07 241.07;" xml:space="preserve">
<path d="M200.402,120.535c0-44.039-35.828-79.867-79.867-79.867c-44.039,0-79.867,35.828-79.867,79.867s35.828,79.867,79.867,79.867
	C164.574,200.402,200.402,164.574,200.402,120.535z M120.535,185.402c-35.768,0-64.867-29.1-64.867-64.867
	s29.099-64.867,64.867-64.867c35.768,0,64.867,29.1,64.867,64.867S156.303,185.402,120.535,185.402z M128.035,30h-15V0h15V30z
	 M113.035,211.07h15v30h-15V211.07z M241.07,128.035h-30v-15h30V128.035z M30,128.035H0v-15h30V128.035z M211.069,40.607
	L189.855,61.82L179.25,51.213L200.464,30L211.069,40.607z M30.001,200.463l21.214-21.214l10.606,10.607L40.607,211.07
	L30.001,200.463z M51.214,61.82L30.001,40.607L40.607,30l21.214,21.213L51.214,61.82z M200.463,211.07l-21.214-21.214l10.607-10.607
	l21.214,21.214L200.463,211.07z"/>
<g>
</g>
<g>
</g>
<g>
</g>
<g>
</g>
<g>
</g>
<g>
</g>
<g>
</g>
<g>
</g>
<g>
</g>
<g>
</g>
<g>
</g>
<g>
</g>
<g>
</g>
<g>
</g>
<g>
</g>
</svg>
